<?xml version="1.0" encoding="UTF-8"?>
<!DOCTYPE svg PUBLIC "-//W3C//DTD SVG 1.1//EN" "http://www.w3.org/Graphics/SVG/1.1/DTD/svg11.dtd">
<!-- Creator: CorelDRAW X7 -->
<svg xmlns="http://www.w3.org/2000/svg" xml:space="preserve" width="5in" height="5in" version="1.1" style="shape-rendering:geometricPrecision; text-rendering:geometricPrecision; image-rendering:optimizeQuality; fill-rule:evenodd; clip-rule:evenodd"
viewBox="0 0 5000 5000"
 xmlns:xlink="http://www.w3.org/1999/xlink">
 <defs>
  <style type="text/css">
   <![CDATA[
    .fil0 {fill:#000028}
   ]]>
  </style>
 </defs>
 <g id="Layer_x0020_1">
  <metadata id="CorelCorpID_0Corel-Layer"/>
  <path class="fil0" d="M1963 1834c-55,-26 -462,-11 -584,-12 -55,0 -176,-22 -176,36l0 864 760 0 0 2243c0,27 8,35 35,35l888 0 0 -2278 771 0 105 -900 -830 0c-28,0 -46,26 -46,-23 0,-235 -34,-675 76,-835 52,-75 186,-123 309,-123l526 0 0 -806c-149,0 -272,-23 -433,-23 -186,0 -188,-29 -440,3 -114,14 -265,53 -358,98 -337,163 -517,424 -582,808 -40,238 -21,632 -21,913z"/>
 </g>
</svg>
