<?xml version="1.0" encoding="UTF-8"?>
<!DOCTYPE svg PUBLIC "-//W3C//DTD SVG 1.1//EN" "http://www.w3.org/Graphics/SVG/1.1/DTD/svg11.dtd">
<!-- Creator: CorelDRAW X7 -->
<svg xmlns="http://www.w3.org/2000/svg" xml:space="preserve" width="5in" height="5in" version="1.1" style="shape-rendering:geometricPrecision; text-rendering:geometricPrecision; image-rendering:optimizeQuality; fill-rule:evenodd; clip-rule:evenodd"
viewBox="0 0 5000 5000"
 xmlns:xlink="http://www.w3.org/1999/xlink">
 <defs>
  <style type="text/css">
   <![CDATA[
    .fil0 {fill:#000028}
   ]]>
  </style>
 </defs>
 <g id="Layer_x0020_1">
  <metadata id="CorelCorpID_0Corel-Layer"/>
  <path class="fil0" d="M3471 4899c-262,66 -536,101 -819,101 -280,0 -553,-35 -813,-99 1,-4 2,-7 4,-11 17,-52 2,-566 2,-653 -272,0 -849,163 -1082,-366 -68,-152 -200,-384 -343,-481 -45,-30 -145,-84 -145,-143 0,-124 309,-41 448,54 203,138 154,287 423,461 179,115 411,145 612,69 191,-72 37,-24 193,-325 61,-119 89,-102 107,-168 -333,-7 -827,-186 -1068,-426 -380,-380 -509,-1157 -298,-1686 29,-71 59,-117 96,-179 20,-35 31,-53 55,-82 123,-150 75,-55 34,-288 -11,-64 -28,-182 -19,-246 17,-128 21,-220 67,-345 29,-80 18,-86 96,-86 201,0 485,130 644,226 311,187 90,93 563,36 797,-98 1111,73 1232,73 64,0 451,-335 869,-335 99,0 208,562 61,869 162,108 335,530 335,792 0,426 -41,824 -309,1154l-191 190c-31,25 -78,54 -110,73 -210,127 -606,260 -868,260 226,337 213,277 213,777l1 746c2,12 5,25 10,38z"/>
 </g>
</svg>
