<?xml version="1.0" encoding="UTF-8"?>
<!DOCTYPE svg PUBLIC "-//W3C//DTD SVG 1.1//EN" "http://www.w3.org/Graphics/SVG/1.1/DTD/svg11.dtd">
<!-- Creator: CorelDRAW X7 -->
<svg xmlns="http://www.w3.org/2000/svg" xml:space="preserve" width="5in" height="5in" version="1.1" style="shape-rendering:geometricPrecision; text-rendering:geometricPrecision; image-rendering:optimizeQuality; fill-rule:evenodd; clip-rule:evenodd"
viewBox="0 0 5000 5000"
 xmlns:xlink="http://www.w3.org/1999/xlink">
 <defs>
  <style type="text/css">
   <![CDATA[
    .str0 {stroke:black;stroke-width:6.94488}
    .fil0 {fill:#000028}
   ]]>
  </style>
 </defs>
 <g id="Layer_x0020_1">
  <metadata id="CorelCorpID_0Corel-Layer"/>
  <g id="_2498871424192">
   <path class="fil0 str0" d="M646 1212c-181,0 -346,-44 -445,-131 -322,-283 -251,-811 167,-959 516,-182 952,292 769,736 -81,197 -296,354 -491,354z"/>
   <path class="fil0 str0" d="M2778 3006l0 1895 -1083 0 0 -3232 1083 0 0 440 171 -201c519,-542 1815,-494 2017,754 53,328 28,1808 28,2256 -69,-39 -872,-17 -1015,-17 -64,0 -6,-5 -51,17 0,-496 0,-993 0,-1489 0,-518 -3,-982 -592,-982 -282,0 -558,277 -558,559z"/>
   <path class="fil0 str0" d="M20 4918l0 -3249 1066 0 0 3249c-62,-35 -1042,-29 -1066,0z"/>
  </g>
 </g>
</svg>
