<?xml version="1.0" encoding="UTF-8"?>
<!DOCTYPE svg PUBLIC "-//W3C//DTD SVG 1.1//EN" "http://www.w3.org/Graphics/SVG/1.1/DTD/svg11.dtd">
<!-- Creator: CorelDRAW X7 -->
<svg xmlns="http://www.w3.org/2000/svg" xml:space="preserve" width="5in" height="5in" version="1.1" style="shape-rendering:geometricPrecision; text-rendering:geometricPrecision; image-rendering:optimizeQuality; fill-rule:evenodd; clip-rule:evenodd"
viewBox="0 0 5000 5000"
 xmlns:xlink="http://www.w3.org/1999/xlink">
 <defs>
  <style type="text/css">
   <![CDATA[
    .fil0 {fill:#000028}
   ]]>
  </style>
 </defs>
 <g id="Layer_x0020_1">
  <metadata id="CorelCorpID_0Corel-Layer"/>
  <path class="fil0" d="M50 900l323 0c363,376 1695,1698 1737,1729 184,139 385,179 607,99 179,-65 298,-217 431,-350l1046 -1046c59,-59 300,-294 434,-432l322 0 0 236 -1367 1361 1367 1372 0 231 -341 0 -1314 -1320c-66,96 -219,207 -324,270 -308,182 -748,131 -1032,-57 -90,-59 -190,-175 -242,-210l-1312 1317 -335 0 0 -236 1367 -1361 -1367 -1372 0 -231z"/>
 </g>
</svg>
