<?xml version="1.0" encoding="UTF-8"?>
<!DOCTYPE svg PUBLIC "-//W3C//DTD SVG 1.1//EN" "http://www.w3.org/Graphics/SVG/1.1/DTD/svg11.dtd">
<!-- Creator: CorelDRAW X7 -->
<svg xmlns="http://www.w3.org/2000/svg" xml:space="preserve" width="5in" height="5in" version="1.1" style="shape-rendering:geometricPrecision; text-rendering:geometricPrecision; image-rendering:optimizeQuality; fill-rule:evenodd; clip-rule:evenodd"
viewBox="0 0 5000 5000"
 xmlns:xlink="http://www.w3.org/1999/xlink">
 <defs>
  <style type="text/css">
   <![CDATA[
    .fil0 {fill:#000028}
   ]]>
  </style>
 </defs>
 <g id="Layer_x0020_1">
  <metadata id="CorelCorpID_0Corel-Layer"/>
  <path class="fil0" d="M2430 1443c0,168 13,161 23,282 -526,-44 -691,-116 -1108,-288 -273,-113 -732,-457 -912,-684 -31,-38 -53,-82 -104,-96 -21,88 -129,244 -129,505 0,329 137,581 354,783l92 73c-234,0 -389,-111 -458,-117 0,351 191,674 474,864 66,44 228,132 324,134l0 23c-69,2 -130,24 -305,24 -65,0 -70,-12 -129,-12 38,166 203,389 340,493 143,109 360,223 610,223 -10,9 -11,10 -26,21 -14,10 -21,14 -34,24l-194 123c-315,173 -624,266 -1025,266 -92,0 -133,-12 -223,-12 69,94 561,287 691,331 1226,411 2541,-100 3231,-1021 256,-343 436,-722 535,-1214 48,-233 52,-379 49,-608 -1,-135 31,-81 192,-243 59,-60 281,-287 302,-367 -49,12 -86,31 -130,46 -47,15 -84,29 -133,43 -102,29 -199,40 -300,64 29,-40 253,-142 399,-470 13,-30 21,-64 35,-93 -44,10 -236,148 -657,246 -24,-35 -31,-37 -66,-64 -31,-23 -37,-34 -70,-58 -709,-536 -1648,35 -1648,779z"/>
 </g>
</svg>
